<?xml version="1.0" encoding="utf-8"?>
<!-- Generator: Adobe Illustrator 24.0.1, SVG Export Plug-In . SVG Version: 6.00 Build 0)  -->
<svg version="1.1" id="Capa_1" xmlns="http://www.w3.org/2000/svg" xmlns:xlink="http://www.w3.org/1999/xlink" x="0px" y="0px"
	 viewBox="0 0 130 48" style="enable-background:new 0 0 130 48;" xml:space="preserve">
<style type="text/css">
	.st0{fill:#6555DF;}
</style>
<path class="st0" d="M8.17,12.57c0,1.74,1.25,2.75,2.51,2.75c0.44,0,0.89-0.15,1.29-0.43c-0.63-0.5-0.89-1.01-0.89-1.51
	c0-2.09,4.31-3.99,4.31-3.99c-1.59,4.96-4.79,12.47-6.82,15.88c-0.55-0.97-0.85-2.13-0.85-3.29c0-1.01,0.22-1.98,0.77-2.79
	C8.13,19.08,7.76,19,7.4,19c-2.25,0-4.43,2.36-4.43,5.62c0,1.86,0.66,3.99,2.43,6.16c-1.11,1.59-2.29,2.52-3.69,2.52
	c-0.3,0-0.63-0.04-0.96-0.15v0.08c0,3.37,3.06,5.11,6.01,5.11c2.03,0,3.95-0.81,4.87-2.48c0.26-0.46,0.7-0.97,0.89-1.47
	c2.18,0.81,4.17,1.16,6.05,1.16c10.22,0,16.12-10.61,16.12-19.45c0-6.31-3.02-11.7-9.66-11.7h-0.66c0.37-1.24,0.85-1.51,1.22-1.51
	c0.3,0,0.48,0.15,0.48,0.15V2.92c0-1.28-1.88-2.13-3.91-2.13c-1.59,0-3.28,0.54-4.24,1.86c-0.33,0.43-0.7,1.12-1.33,2.71
	c-4.87,1.28-8.15,4.03-8.41,6.86V12.57z M22.96,7.69c0.22-0.04,0.44-0.08,0.66-0.08c2.51,0,3.65,2.83,3.65,6.43
	c0,6.55-3.8,15.84-10.1,15.84c-0.77,0-1.59-0.15-2.43-0.46C17.17,24.03,21,14.19,22.96,7.69z M46.23,28.68
	c-0.07,0.54-0.07,1.05-0.07,1.51c0,1.98,0.52,3.49,2.07,3.95c0.22,0.08,0.48,0.12,0.74,0.12c3.87,0,10.95-7.59,12.24-9.65
	l-2.07-0.77c-1.22,1.74-5.27,5-6.38,5.19h-0.11c-0.44,0-0.63-0.39-0.63-1.01c0-2.6,3.17-9.49,3.54-10.46
	c-0.18-1.05-1.59-1.78-3.06-1.78c-1.18,0-2.4,0.5-3.02,1.78c-0.15,0.46-0.41,1.12-0.7,1.94c-1.36-1.86-2.95-2.63-4.61-2.63
	c-3.1,0-6.31,2.83-7.89,6.35c-0.96,2.05-1.36,3.95-1.36,5.54c0,3.1,1.59,5.07,3.91,5.07C40.89,33.83,43.54,32.29,46.23,28.68z
	 M41.96,27.21c-0.07-0.27-0.11-0.54-0.11-0.85c0-2.48,2.32-6.08,4.5-6.08c0.63,0,1.25,0.27,1.81,0.97
	c-0.41,1.16-0.81,2.44-1.18,3.76c-1.29,1.36-3.06,2.91-4.17,2.91C42.4,27.91,42.1,27.71,41.96,27.21z M62.94,33.8
	c0.44-3.18,1.55-6.55,2.88-8.91c1.33-1.67,3.91-3.68,4.94-3.83h0.07c0.22,0,0.3,0.15,0.3,0.43c0,1.39-2.47,6.16-2.47,9.49
	c0,1.51,0.52,2.71,1.99,3.18c0.15,0.04,0.3,0.08,0.48,0.12c0.26,0.08,0.55,0.08,0.85,0.08c4.68,0,11.06-7.71,12.35-9.72l-2.1-0.77
	c-0.59,0.85-5.31,6.08-6.86,6.08c-0.15,0-0.26-0.04-0.33-0.15c-0.07-0.08-0.11-0.19-0.11-0.35c0-1.51,2.51-6.28,2.51-9.41
	c0-1.36-0.48-2.4-1.84-2.71c-0.33-0.08-0.66-0.12-1-0.12c-2.43,0-5.42,1.7-7.23,3.33c0.37-1.12,0.37-1.28,1.22-2.44
	c-0.37-1.01-1.84-1.67-3.47-1.67c-1.4,0-2.88,0.5-3.69,1.67c-1.62,4.73-3.39,7.71-4.46,11.23c-0.15,0.5-0.22,1.08-0.22,1.67
	c0,1.32,0.44,2.63,1.7,3.06c0.44,0.15,1.03,0.27,1.77,0.27C60.95,34.3,61.87,34.18,62.94,33.8z M83.44,47.74
	c5.31,0,9.04-5.04,11.91-11.16c5.61-0.89,10.81-8.1,13.28-11.97l-2.29-0.66c-0.07,0.08-5.68,6.97-9.15,8.33
	c2.47-6.31,3.98-11.58,5.86-14.06c-0.37-1.55-2.14-2.44-3.91-2.44c-1.66,0-3.36,0.77-3.95,2.44l-0.33,1.16
	c-1.33-1.78-2.91-2.52-4.5-2.52c-3.13,0-6.34,2.83-7.93,6.35c-0.96,2.05-1.36,3.95-1.36,5.54c0,3.1,1.59,5.04,3.91,5.04
	c1.84,0,4.13-1.2,6.53-4.03c-0.37,1.08-0.74,2.13-1.25,3.29c-8.22,1.47-11.43,6.24-11.43,9.92c0,2.48,1.44,4.49,3.72,4.73
	L83.44,47.74z M84.59,43.6c-0.66,0-1.03-0.54-1.03-1.16c0-2.52,6.05-4.38,6.05-4.38C87.43,42.28,85.66,43.6,84.59,43.6z
	 M88.98,27.91c-0.63,0-0.96-0.66-0.96-1.55c0-2.48,2.32-6.08,4.5-6.08c0.63,0,1.25,0.31,1.81,1.01l-1.14,3.68
	C91.89,26.32,90.08,27.91,88.98,27.91z M119.26,31.2c3.5-0.43,6.71-2.98,9.74-6.62l-1.92-0.81c-1.14,1.63-4.35,4.53-6.23,4.8
	c1-2.13,1.4-4.03,1.4-5.62c0-3.95-2.58-6.08-5.31-6.08c-1.14,0-2.29,0.39-3.32,1.16c-0.48-0.23-0.96-0.35-1.51-0.35
	c-1.99,0-4.31,1.67-5.75,5.66c-0.44,1.28-0.74,2.67-0.74,4.03c0,2.71,1.14,5.23,4.39,6.35c0.66,0.23,1.48,0.35,2.32,0.35
	C114.8,34.07,117.79,33.1,119.26,31.2z M113.95,22.1c0.85-1.7,1.88-2.48,2.66-2.48c0.74,0,1.25,0.66,1.25,1.94
	c0,1.47-0.74,3.8-2.73,6.82c-1.25-0.15-1.84-1.63-1.84-3.29C113.29,24.03,113.51,22.95,113.95,22.1z M111.15,31.24
	c-0.52-0.31-0.7-1.08-0.7-2.01c0-0.97,0.22-2.09,0.55-2.94c0.07,1.7,1.25,3.49,2.54,4.18c-0.52,0.77-1.07,1.01-1.59,1.01
	C111.67,31.47,111.37,31.36,111.15,31.24z"/>
</svg>
