<?xml version="1.0" encoding="utf-8"?>
<!-- Generator: Adobe Illustrator 24.0.1, SVG Export Plug-In . SVG Version: 6.00 Build 0)  -->
<svg version="1.1" id="Capa_1" xmlns="http://www.w3.org/2000/svg" xmlns:xlink="http://www.w3.org/1999/xlink" x="0px" y="0px"
	 viewBox="0 0 75 75" style="enable-background:new 0 0 75 75;" xml:space="preserve">
<style type="text/css">
	.st0{fill-rule:evenodd;clip-rule:evenodd;fill:#5C587A;}
</style>
<path class="st0" d="M37.82,0.84c-20.47,0-37.08,16.61-37.08,37.08S17.35,75,37.82,75S74.9,58.39,74.9,37.92S58.29,0.84,37.82,0.84z
	 M39.71,30.47c0-6.12-5.01-11.12-11.13-11.12c-6.12,0-11.13,5.01-11.13,11.12c0,6.12,5.01,11.13,11.13,11.13
	C34.7,41.59,39.71,36.58,39.71,30.47z M28.58,34.17c-2.04,0-3.71-1.67-3.71-3.71s1.67-3.71,3.71-3.71s3.71,1.67,3.71,3.71
	S30.62,34.17,28.58,34.17z M60.1,34.17c0,4.12-3.3,7.42-7.42,7.42c-4.12,0-7.42-3.3-7.42-7.42c-0.04-4.12,3.3-7.42,7.42-7.42
	C56.8,26.76,60.1,30.06,60.1,34.17z M28.58,52.75c-5.15,0-11.05,2.11-13.57,4.12C20.09,62.99,27.58,66.99,36,67.47V57.17
	c0-7.01,11.05-10.01,16.69-10.01c3.26,0,8.31,1.04,12.01,3.23c1.78-3.82,2.78-8.05,2.78-12.5c0-16.35-13.31-29.67-29.67-29.67
	c-16.35,0-29.67,13.31-29.67,29.67c0,4.56,1.04,8.86,2.89,12.72c4.97-3.63,12.72-5.3,17.54-5.3c1.63,0,3.6,0.22,5.67,0.59
	c-2.34,2.11-3.93,4.52-4.82,6.9c-0.15,0-0.31-0.01-0.45-0.02C28.84,52.76,28.71,52.75,28.58,52.75z"/>
</svg>
